<?xml version="1.0" encoding="utf-8"?>
<!-- Generator: Adobe Illustrator 27.5.0, SVG Export Plug-In . SVG Version: 6.00 Build 0)  -->
<svg version="1.1" id="_x30_" xmlns="http://www.w3.org/2000/svg" xmlns:xlink="http://www.w3.org/1999/xlink" x="0px" y="0px"
	 viewBox="0 0 1394.65 561.26" style="enable-background:new 0 0 1394.65 561.26;" xml:space="preserve">
<style type="text/css">
	.st0{fill:none;stroke:#000000;stroke-width:0.9921;stroke-linecap:round;stroke-linejoin:round;stroke-miterlimit:10;}
</style>
<g>
	<g id="CIRCLE">
		<circle class="st0" cx="323.43" cy="547.23" r="3.54"/>
	</g>
	<g id="LINE">
		<line class="st0" x1="413.86" y1="277.8" x2="255.12" y2="277.8"/>
	</g>
	<g id="LINE_00000182514565055881333390000011207019745089819052_">
		<line class="st0" x1="413.86" y1="277.8" x2="413.86" y2="334.49"/>
	</g>
	<g id="LINE_00000148638426375382004210000006884920392575239044_">
		<line class="st0" x1="425.2" y1="334.49" x2="413.86" y2="334.49"/>
	</g>
	<g id="LINE_00000030458305213661070270000003528706703369803163_">
		<line class="st0" x1="425.2" y1="334.49" x2="425.2" y2="391.18"/>
	</g>
	<g id="LINE_00000130621335557831088890000016523536352461613960_">
		<line class="st0" x1="425.2" y1="391.18" x2="413.86" y2="391.18"/>
	</g>
	<g id="LINE_00000115493327998767549640000017269917819578878361_">
		<line class="st0" x1="413.86" y1="447.87" x2="413.86" y2="391.18"/>
	</g>
	<g id="LINE_00000121272547623438842230000011262531909389338240_">
		<line class="st0" x1="413.86" y1="447.87" x2="425.2" y2="447.87"/>
	</g>
	<g id="LINE_00000107579870785897559270000006315812955535982001_">
		<line class="st0" x1="425.2" y1="447.87" x2="425.2" y2="504.57"/>
	</g>
	<g id="LINE_00000027598423601275184780000003193103378453351087_">
		<line class="st0" x1="425.2" y1="504.57" x2="413.86" y2="504.57"/>
	</g>
	<g id="LINE_00000092442339394282833620000014045007660992710037_">
		<line class="st0" x1="413.86" y1="561.26" x2="413.86" y2="504.57"/>
	</g>
	<g id="LINE_00000075153007950608017270000008944784649589326493_">
		<line class="st0" x1="11.34" y1="561.26" x2="413.86" y2="561.26"/>
	</g>
	<g id="LINE_00000152250645086240487190000018216997299662655636_">
		<line class="st0" x1="11.34" y1="561.26" x2="11.34" y2="504.57"/>
	</g>
	<g id="LINE_00000070827188597345979470000001830297859368088477_">
		<line class="st0" x1="0" y1="504.57" x2="11.34" y2="504.57"/>
	</g>
	<g id="LINE_00000072260088430953512390000008687093062321310651_">
		<line class="st0" x1="0" y1="504.57" x2="0" y2="447.87"/>
	</g>
	<g id="LINE_00000178883300579620943260000016501480580038706350_">
		<line class="st0" x1="11.34" y1="447.87" x2="0" y2="447.87"/>
	</g>
	<g id="LINE_00000008146827029668228290000018008027747951918271_">
		<line class="st0" x1="11.34" y1="447.87" x2="11.34" y2="391.18"/>
	</g>
	<g id="LINE_00000078735412024278390440000013479105172190146721_">
		<line class="st0" x1="0" y1="391.18" x2="11.34" y2="391.18"/>
	</g>
	<g id="LINE_00000026884505911921473490000008852515651877044628_">
		<line class="st0" x1="0" y1="391.18" x2="0" y2="334.49"/>
	</g>
	<g id="LINE_00000126320188835398507380000004185180587844425873_">
		<line class="st0" x1="0" y1="334.49" x2="11.34" y2="334.49"/>
	</g>
	<g id="LINE_00000099631960690880980570000007364561671096365445_">
		<line class="st0" x1="11.34" y1="277.8" x2="11.34" y2="334.49"/>
	</g>
	<g id="LINE_00000141425554484226767320000003118103640046578076_">
		<line class="st0" x1="170.08" y1="277.8" x2="11.34" y2="277.8"/>
	</g>
	<g id="LINE_00000057828677019701018100000012744642746744657799_">
		<line class="st0" x1="170.08" y1="277.8" x2="170.08" y2="289.13"/>
	</g>
	<g id="LINE_00000010281429759818800550000001506617470074321834_">
		<line class="st0" x1="255.12" y1="289.13" x2="170.08" y2="289.13"/>
	</g>
	<g id="LINE_00000000206537718884090370000013692102369444315322_">
		<line class="st0" x1="255.12" y1="289.13" x2="255.12" y2="277.8"/>
	</g>
	<g id="LINE_00000001631864735539488250000014705991998194284960_">
		<line class="st0" x1="170.08" y1="365.67" x2="170.08" y2="354.33"/>
	</g>
	<g id="LINE_00000000201338201665448290000016445324757362484387_">
		<line class="st0" x1="255.12" y1="365.67" x2="170.08" y2="365.67"/>
	</g>
	<g id="LINE_00000160188296978285657310000002792301426294682533_">
		<line class="st0" x1="255.12" y1="354.33" x2="255.12" y2="365.67"/>
	</g>
	<g id="LINE_00000063631008825783137230000015044631754312149950_">
		<line class="st0" x1="170.08" y1="354.33" x2="255.12" y2="354.33"/>
	</g>
	<g id="CIRCLE_00000172438645796299624550000017631757050891174320_">
		<circle class="st0" cx="323.43" cy="432.43" r="3.54"/>
	</g>
	<g id="ARC">
		<path class="st0" d="M255.69,439.94c-3.13,0-5.67,2.54-5.67,5.67l0,0"/>
	</g>
	<g id="LINE_00000013161094418935286300000012124831080308524449_">
		<line class="st0" x1="250.02" y1="534.05" x2="250.02" y2="445.61"/>
	</g>
	<g id="ARC_00000029035620349811034420000015019232304385270173_">
		<path class="st0" d="M250.02,534.05c0,3.13,2.54,5.67,5.67,5.67"/>
	</g>
	<g id="LINE_00000044860081541704768540000004815961944433411456_">
		<line class="st0" x1="255.69" y1="539.72" x2="391.18" y2="539.72"/>
	</g>
	<g id="ARC_00000176723301558796855200000003953512197410918784_">
		<path class="st0" d="M391.18,539.72c3.13,0,5.67-2.54,5.67-5.67l0,0"/>
	</g>
	<g id="ARC_00000095322977032197317920000013598801152252652461_">
		<path class="st0" d="M396.85,445.61c0-3.13-2.54-5.67-5.67-5.67l0,0"/>
	</g>
	<g id="LINE_00000000193312510499715100000009197690998170166411_">
		<line class="st0" x1="391.18" y1="439.94" x2="255.69" y2="439.94"/>
	</g>
	<g id="LINE_00000078748560723167106550000016671327345230263482_">
		<line class="st0" x1="396.85" y1="445.61" x2="396.85" y2="534.05"/>
	</g>
</g>
<g>
	<g id="LINE_00000099636085974613355010000004476766771397313438_">
		<line class="st0" x1="413.86" y1="561.26" x2="702.99" y2="561.26"/>
	</g>
	<g id="LINE_00000080929288599654385230000014479427670080518021_">
		<line class="st0" x1="413.86" y1="447.87" x2="413.86" y2="391.18"/>
	</g>
	<g id="LINE_00000070089822119012417320000014655878939623937449_">
		<line class="st0" x1="413.86" y1="561.26" x2="413.86" y2="504.57"/>
	</g>
	<g id="LINE_00000015330322913107784320000012492463952589556102_">
		<line class="st0" x1="413.86" y1="334.49" x2="413.86" y2="277.8"/>
	</g>
	<g id="LINE_00000057131561795686666520000000102797956263439783_">
		<line class="st0" x1="702.99" y1="391.18" x2="702.99" y2="447.87"/>
	</g>
	<g id="LINE_00000000193538225734638450000011885312536168204935_">
		<line class="st0" x1="702.99" y1="277.8" x2="702.99" y2="334.49"/>
	</g>
	<g id="LINE_00000160911155536739146820000001359581167919714442_">
		<line class="st0" x1="702.99" y1="504.57" x2="702.99" y2="561.26"/>
	</g>
	<g id="LINE_00000020369383312146974530000005817382861812933778_">
		<line class="st0" x1="425.2" y1="504.57" x2="425.2" y2="447.87"/>
	</g>
	<g id="LINE_00000178192162081978182300000014335793049151177140_">
		<line class="st0" x1="425.2" y1="504.57" x2="413.86" y2="504.57"/>
	</g>
	<g id="LINE_00000065036447969383720980000017876101484776203438_">
		<line class="st0" x1="413.86" y1="447.87" x2="425.2" y2="447.87"/>
	</g>
	<g id="LINE_00000140697898484062725820000018018081282530113418_">
		<line class="st0" x1="691.65" y1="504.57" x2="702.99" y2="504.57"/>
	</g>
	<g id="LINE_00000098925312764245600320000005363928508813099416_">
		<line class="st0" x1="691.65" y1="504.57" x2="691.65" y2="447.87"/>
	</g>
	<g id="LINE_00000097488939639144919290000004582974827564087947_">
		<line class="st0" x1="702.99" y1="447.87" x2="691.65" y2="447.87"/>
	</g>
	<g id="LINE_00000101784500361557683820000012348860309196894386_">
		<line class="st0" x1="413.86" y1="391.18" x2="425.2" y2="391.18"/>
	</g>
	<g id="LINE_00000023973010245453781670000013557384865626007723_">
		<line class="st0" x1="425.2" y1="334.49" x2="425.2" y2="391.18"/>
	</g>
	<g id="LINE_00000176037494936625174160000010725845149397212086_">
		<line class="st0" x1="425.2" y1="334.49" x2="413.86" y2="334.49"/>
	</g>
	<g id="LINE_00000028287964121811248140000017745411667495636135_">
		<line class="st0" x1="691.65" y1="334.49" x2="702.99" y2="334.49"/>
	</g>
	<g id="LINE_00000101087014224021962460000000829228145492548239_">
		<line class="st0" x1="691.65" y1="334.49" x2="691.65" y2="391.18"/>
	</g>
	<g id="LINE_00000047768081365818814690000015806201899575005622_">
		<line class="st0" x1="702.99" y1="391.18" x2="691.65" y2="391.18"/>
	</g>
	<g id="LINE_00000023282750260784434580000016250285650564013244_">
		<line class="st0" x1="702.99" y1="277.8" x2="600.94" y2="277.8"/>
	</g>
	<g id="LINE_00000079445408008559162990000004513990670573974430_">
		<line class="st0" x1="515.91" y1="277.8" x2="413.86" y2="277.8"/>
	</g>
	<g id="LINE_00000078730639426750541490000010509809365589418407_">
		<line class="st0" x1="515.91" y1="277.8" x2="515.91" y2="289.13"/>
	</g>
	<g id="LINE_00000000933574710345861750000014138000563148689052_">
		<line class="st0" x1="600.94" y1="289.13" x2="515.91" y2="289.13"/>
	</g>
	<g id="LINE_00000118389518369891806330000004727870764739743139_">
		<line class="st0" x1="600.94" y1="289.13" x2="600.94" y2="277.8"/>
	</g>
	<g id="LINE_00000054975613051646472840000007072669115090050472_">
		<line class="st0" x1="515.91" y1="365.67" x2="515.91" y2="354.33"/>
	</g>
	<g id="LINE_00000004509730743600037910000008093746779530505897_">
		<line class="st0" x1="600.94" y1="365.67" x2="515.91" y2="365.67"/>
	</g>
	<g id="LINE_00000006709831943289200100000008081828262475820218_">
		<line class="st0" x1="600.94" y1="354.33" x2="600.94" y2="365.67"/>
	</g>
	<g id="LINE_00000047054187651143475430000006402104766339949700_">
		<line class="st0" x1="515.91" y1="354.33" x2="600.94" y2="354.33"/>
	</g>
</g>
<g>
	<g id="LINE_00000169517531644006802290000010298362849259578303_">
		<line class="st0" x1="1105.51" y1="561.26" x2="1394.65" y2="561.26"/>
	</g>
	<g id="LINE_00000107558876347071679550000008356412652214689945_">
		<line class="st0" x1="1105.51" y1="447.87" x2="1105.51" y2="391.18"/>
	</g>
	<g id="LINE_00000173154823046158859400000001053146760179626909_">
		<line class="st0" x1="1105.51" y1="561.26" x2="1105.51" y2="504.57"/>
	</g>
	<g id="LINE_00000128481318934214116760000005254688289973621920_">
		<line class="st0" x1="1105.51" y1="334.49" x2="1105.51" y2="277.8"/>
	</g>
	<g id="LINE_00000109736078291388877550000016602556627307882884_">
		<line class="st0" x1="1394.65" y1="391.18" x2="1394.65" y2="447.87"/>
	</g>
	<g id="LINE_00000143606860531984179460000000576663716357120191_">
		<line class="st0" x1="1394.65" y1="277.8" x2="1394.65" y2="334.49"/>
	</g>
	<g id="LINE_00000074416405044161989160000001106671775324551056_">
		<line class="st0" x1="1394.65" y1="504.57" x2="1394.65" y2="561.26"/>
	</g>
	<g id="LINE_00000063613807455353309220000013073979820436751520_">
		<line class="st0" x1="1116.85" y1="504.57" x2="1116.85" y2="447.87"/>
	</g>
	<g id="LINE_00000114043499629795457780000002896200601528224949_">
		<line class="st0" x1="1116.85" y1="504.57" x2="1105.51" y2="504.57"/>
	</g>
	<g id="LINE_00000151511200598989262170000003706268694010600094_">
		<line class="st0" x1="1105.51" y1="447.87" x2="1116.85" y2="447.87"/>
	</g>
	<g id="LINE_00000088121839698883069440000017489365955174787726_">
		<line class="st0" x1="1383.31" y1="504.57" x2="1394.65" y2="504.57"/>
	</g>
	<g id="LINE_00000182489604484610182860000010739052229542690704_">
		<line class="st0" x1="1383.31" y1="504.57" x2="1383.31" y2="447.87"/>
	</g>
	<g id="LINE_00000175293914171884873320000010340612781244584339_">
		<line class="st0" x1="1394.65" y1="447.87" x2="1383.31" y2="447.87"/>
	</g>
	<g id="LINE_00000096776182880150121110000001826311655259152522_">
		<line class="st0" x1="1105.51" y1="391.18" x2="1116.85" y2="391.18"/>
	</g>
	<g id="LINE_00000063603024005310623780000009136346329147803576_">
		<line class="st0" x1="1116.85" y1="334.49" x2="1116.85" y2="391.18"/>
	</g>
	<g id="LINE_00000001651100629855710470000016406702346191482554_">
		<line class="st0" x1="1116.85" y1="334.49" x2="1105.51" y2="334.49"/>
	</g>
	<g id="LINE_00000137824257863676828740000003311490598316592288_">
		<line class="st0" x1="1383.31" y1="334.49" x2="1394.65" y2="334.49"/>
	</g>
	<g id="LINE_00000148659280119688844140000016476341370166476717_">
		<line class="st0" x1="1383.31" y1="334.49" x2="1383.31" y2="391.18"/>
	</g>
	<g id="LINE_00000084527283178788539400000010513804281198314406_">
		<line class="st0" x1="1394.65" y1="391.18" x2="1383.31" y2="391.18"/>
	</g>
	<g id="LINE_00000175314697256906924440000005768578553756742585_">
		<line class="st0" x1="1394.65" y1="277.8" x2="1292.6" y2="277.8"/>
	</g>
	<g id="LINE_00000157305319092521121780000010657136400630346405_">
		<line class="st0" x1="1207.56" y1="277.8" x2="1105.51" y2="277.8"/>
	</g>
	<g id="LINE_00000148621526570791336100000015917233805723993501_">
		<line class="st0" x1="1207.56" y1="277.8" x2="1207.56" y2="289.13"/>
	</g>
	<g id="LINE_00000183932527313380424200000016333733869676419732_">
		<line class="st0" x1="1292.6" y1="289.13" x2="1207.56" y2="289.13"/>
	</g>
	<g id="LINE_00000136385708050129051590000014814202482054299829_">
		<line class="st0" x1="1292.6" y1="289.13" x2="1292.6" y2="277.8"/>
	</g>
	<g id="LINE_00000115473912063863020030000008825642430728196227_">
		<line class="st0" x1="1207.56" y1="365.67" x2="1207.56" y2="354.33"/>
	</g>
	<g id="LINE_00000165948664367895895630000007736967063881196977_">
		<line class="st0" x1="1292.6" y1="365.67" x2="1207.56" y2="365.67"/>
	</g>
	<g id="LINE_00000097482116064075579810000006084093150534868139_">
		<line class="st0" x1="1292.6" y1="354.33" x2="1292.6" y2="365.67"/>
	</g>
	<g id="LINE_00000180332439613083729410000011309741890313421241_">
		<line class="st0" x1="1207.56" y1="354.33" x2="1292.6" y2="354.33"/>
	</g>
</g>
<g>
	<g id="LINE_00000010294838868822254400000010193284042478051754_">
		<line class="st0" x1="170.08" y1="0" x2="255.12" y2="0"/>
	</g>
	<g id="LINE_00000116942627390439734900000013992860197348227998_">
		<line class="st0" x1="255.12" y1="289.13" x2="170.08" y2="289.13"/>
	</g>
	<g id="LINE_00000123412313900740762910000005673665925106940306_">
		<line class="st0" x1="413.86" y1="11.34" x2="255.12" y2="11.34"/>
	</g>
	<g id="LINE_00000093171927391163568450000015765233949521605791_">
		<line class="st0" x1="255.12" y1="11.34" x2="255.12" y2="0"/>
	</g>
	<g id="LINE_00000118358056120623272530000016153839741029987505_">
		<line class="st0" x1="170.08" y1="11.34" x2="11.34" y2="11.34"/>
	</g>
	<g id="LINE_00000163752200910618504430000007046494665908780433_">
		<line class="st0" x1="170.08" y1="0" x2="170.08" y2="11.34"/>
	</g>
	<g id="LINE_00000062871679774645612130000016069959507427478687_">
		<line class="st0" x1="255.12" y1="277.8" x2="413.86" y2="277.8"/>
	</g>
	<g id="LINE_00000145060361262922965490000000774095518732444330_">
		<line class="st0" x1="255.12" y1="289.13" x2="255.12" y2="277.8"/>
	</g>
	<g id="LINE_00000126308449707170532530000012869988310442280370_">
		<line class="st0" x1="11.34" y1="277.8" x2="170.08" y2="277.8"/>
	</g>
	<g id="LINE_00000148660083426837648420000006706887017486788256_">
		<line class="st0" x1="170.08" y1="277.8" x2="170.08" y2="289.13"/>
	</g>
	<g id="LINE_00000037674550334607555840000016054533482197770154_">
		<line class="st0" x1="425.2" y1="187.09" x2="425.2" y2="102.05"/>
	</g>
	<g id="LINE_00000119800787064285003320000010096028345088312758_">
		<line class="st0" x1="0" y1="102.05" x2="0" y2="187.09"/>
	</g>
	<g id="LINE_00000050649445443134088460000001471686243396208822_">
		<line class="st0" x1="11.34" y1="102.05" x2="0" y2="102.05"/>
	</g>
	<g id="LINE_00000114757570301997518530000007000248775379120296_">
		<line class="st0" x1="11.34" y1="11.34" x2="11.34" y2="102.05"/>
	</g>
	<g id="LINE_00000102511316282793217630000006556767126569215886_">
		<line class="st0" x1="425.2" y1="102.05" x2="413.86" y2="102.05"/>
	</g>
	<g id="LINE_00000147202423808311504540000016463512829646497468_">
		<line class="st0" x1="413.86" y1="102.05" x2="413.86" y2="11.34"/>
	</g>
	<g id="LINE_00000150787108066063253710000009757790643933395113_">
		<line class="st0" x1="0" y1="187.09" x2="11.34" y2="187.09"/>
	</g>
	<g id="LINE_00000067915663238622102820000005024308908612235695_">
		<line class="st0" x1="11.34" y1="187.09" x2="11.34" y2="277.8"/>
	</g>
	<g id="LINE_00000108993672520854302990000000555618427101430431_">
		<line class="st0" x1="413.86" y1="187.09" x2="425.2" y2="187.09"/>
	</g>
	<g id="LINE_00000160190528497386136840000000586524435701908636_">
		<line class="st0" x1="413.86" y1="277.8" x2="413.86" y2="187.09"/>
	</g>
	<g id="ARC_00000182510928166885868920000005870655521319596201_">
		<path class="st0" d="M48.19,59.81c-7.83,0-14.17,6.35-14.17,14.17l0,0"/>
	</g>
	<g id="LINE_00000052087400938905503330000014197758493778066617_">
		<line class="st0" x1="34.02" y1="73.98" x2="34.02" y2="254.83"/>
	</g>
	<g id="ARC_00000051354205990926907010000003677941888009334161_">
		<path class="st0" d="M34.02,254.83c0,7.83,6.35,14.17,14.17,14.17l0,0"/>
	</g>
	<g id="LINE_00000039099590574195863680000001529681636097247124_">
		<line class="st0" x1="48.19" y1="59.81" x2="371.34" y2="59.81"/>
	</g>
	<g id="ARC_00000021831341610680721670000016348709301651627442_">
		<path class="st0" d="M385.51,73.98c0-7.83-6.35-14.17-14.17-14.17l0,0"/>
	</g>
	<g id="LINE_00000096781437827306095140000014011584821492348336_">
		<line class="st0" x1="371.34" y1="269.01" x2="48.19" y2="269.01"/>
	</g>
	<g id="ARC_00000010311950162656864600000012638633665069974945_">
		<path class="st0" d="M371.34,269.01c7.83,0,14.17-6.35,14.17-14.17l0,0"/>
	</g>
	<g id="LINE_00000048462641068074824200000014187524409621558436_">
		<line class="st0" x1="402.52" y1="202.11" x2="402.52" y2="126.71"/>
	</g>
	<g id="LINE_00000151533368685321884790000009239177524039140518_">
		<line class="st0" x1="385.51" y1="73.98" x2="385.51" y2="100.73"/>
	</g>
	<g id="ARC_00000098907072308040104750000003614254947847820941_">
		<path class="st0" d="M402.52,126.71c0-5.64-3.34-10.74-8.5-12.99"/>
	</g>
	<g id="ARC_00000060753500334651147340000007591785612166885797_">
		<path class="st0" d="M385.51,100.73c0,5.64,3.34,10.74,8.5,12.99"/>
	</g>
	<g id="LINE_00000031178471153547869990000003537202556038813871_">
		<line class="st0" x1="385.51" y1="254.83" x2="385.51" y2="228.09"/>
	</g>
	<g id="ARC_00000028288139667478734910000016442835812142865548_">
		<path class="st0" d="M394.02,215.1c5.17-2.25,8.5-7.35,8.5-12.99"/>
	</g>
	<g id="ARC_00000130644340695025378190000007473405340880856229_">
		<path class="st0" d="M394.02,215.1c-5.17,2.25-8.5,7.35-8.5,12.99"/>
	</g>
</g>
<g>
	<g id="CIRCLE_00000016766709108801038310000011851327499108141978_">
		<circle class="st0" cx="1013.39" cy="138.9" r="3.54"/>
	</g>
	<g id="LINE_00000027591556667765614280000016730686542466847129_">
		<line class="st0" x1="702.99" y1="187.09" x2="691.65" y2="187.09"/>
	</g>
	<g id="LINE_00000049191570339697301420000018431289424974028951_">
		<line class="st0" x1="702.99" y1="277.8" x2="702.99" y2="187.09"/>
	</g>
	<g id="LINE_00000014597390439841220440000003273182434962077598_">
		<line class="st0" x1="861.73" y1="277.8" x2="702.99" y2="277.8"/>
	</g>
	<g id="LINE_00000149346594029257927460000011221984259927474585_">
		<line class="st0" x1="861.73" y1="289.13" x2="861.73" y2="277.8"/>
	</g>
	<g id="LINE_00000176762816146761841130000016545936307226718892_">
		<line class="st0" x1="946.77" y1="289.13" x2="861.73" y2="289.13"/>
	</g>
	<g id="LINE_00000127763246285244524560000006255623742492297616_">
		<line class="st0" x1="946.77" y1="277.8" x2="946.77" y2="289.13"/>
	</g>
	<g id="LINE_00000085963114196258780370000005298874819507173274_">
		<line class="st0" x1="1105.51" y1="277.8" x2="946.77" y2="277.8"/>
	</g>
	<g id="LINE_00000034089061592189638400000003603597734424183951_">
		<line class="st0" x1="1105.51" y1="187.09" x2="1105.51" y2="277.8"/>
	</g>
	<g id="LINE_00000096044047331803909840000000681357779078785701_">
		<line class="st0" x1="1116.85" y1="187.09" x2="1105.51" y2="187.09"/>
	</g>
	<g id="LINE_00000134958157968279564170000016780943945388154531_">
		<line class="st0" x1="1116.85" y1="102.05" x2="1116.85" y2="187.09"/>
	</g>
	<g id="LINE_00000005226326700901854930000014884284477359147159_">
		<line class="st0" x1="1105.51" y1="102.05" x2="1116.85" y2="102.05"/>
	</g>
	<g id="LINE_00000044875783954438337830000010641134518732383365_">
		<line class="st0" x1="1105.51" y1="11.34" x2="1105.51" y2="102.05"/>
	</g>
	<g id="LINE_00000036945323099340492590000000547241663983814580_">
		<line class="st0" x1="946.77" y1="11.34" x2="1105.51" y2="11.34"/>
	</g>
	<g id="LINE_00000073687385385847752340000004604888813130864018_">
		<line class="st0" x1="946.77" y1="0" x2="946.77" y2="11.34"/>
	</g>
	<g id="LINE_00000081641555718704909270000008838796577197612991_">
		<line class="st0" x1="861.73" y1="0" x2="946.77" y2="0"/>
	</g>
	<g id="LINE_00000124842812650700020470000003372020137976333206_">
		<line class="st0" x1="861.73" y1="11.34" x2="861.73" y2="0"/>
	</g>
	<g id="LINE_00000126320365519370454090000013869932418041458613_">
		<line class="st0" x1="702.99" y1="11.34" x2="861.73" y2="11.34"/>
	</g>
	<g id="LINE_00000042729238981416122200000006044875567289177742_">
		<line class="st0" x1="702.99" y1="102.05" x2="702.99" y2="11.34"/>
	</g>
	<g id="LINE_00000003100309262910360160000010893734210971855281_">
		<line class="st0" x1="691.65" y1="102.05" x2="702.99" y2="102.05"/>
	</g>
	<g id="LINE_00000126291748525705266790000002093394795174190488_">
		<line class="st0" x1="691.65" y1="187.09" x2="691.65" y2="102.05"/>
	</g>
	<g id="CIRCLE_00000148645469239065525780000009031690375693946557_">
		<circle class="st0" cx="746.36" cy="80.5" r="5.67"/>
	</g>
	<g id="CIRCLE_00000156551479048967552630000001548108023394490813_">
		<circle class="st0" cx="746.36" cy="248.31" r="5.67"/>
	</g>
	<g id="CIRCLE_00000176006644687929608210000017161593105872592062_">
		<circle class="st0" cx="1056.47" cy="80.5" r="5.67"/>
	</g>
	<g id="CIRCLE_00000126307268820213698670000006617989330021893561_">
		<circle class="st0" cx="972.28" cy="93.54" r="5.67"/>
	</g>
	<g id="CIRCLE_00000030451373163959540330000003029139104624021183_">
		<circle class="st0" cx="972.28" cy="235.28" r="5.67"/>
	</g>
	<g id="CIRCLE_00000091010259740354136930000001665226609117451674_">
		<circle class="st0" cx="830.55" cy="93.54" r="5.67"/>
	</g>
	<g id="CIRCLE_00000024703534528952957920000010568637648663017146_">
		<circle class="st0" cx="830.55" cy="235.28" r="5.67"/>
	</g>
	<g id="CIRCLE_00000134232507071557326700000011248935136454222244_">
		<circle class="st0" cx="901.42" cy="164.41" r="83.62"/>
	</g>
	<g id="CIRCLE_00000139266670265194820460000007713015822605950100_">
		<circle class="st0" cx="1056.47" cy="248.31" r="5.67"/>
	</g>
	<g id="CIRCLE_00000063601223887202992290000016294218998837016733_">
		<circle class="st0" cx="1055.91" cy="110.55" r="7.09"/>
	</g>
	<g id="CIRCLE_00000138559499665246960730000016732344351169193860_">
		<circle class="st0" cx="1027.56" cy="110.55" r="7.09"/>
	</g>
	<g id="CIRCLE_00000132788839934366023340000008283237321628574866_">
		<circle class="st0" cx="773.86" cy="248.31" r="7.09"/>
	</g>
	<g id="CIRCLE_00000096771851647591437250000012323072887155900846_">
		<circle class="st0" cx="1028.98" cy="80.5" r="7.09"/>
	</g>
	<g id="CIRCLE_00000056399121653318684020000004950315234648148918_">
		<circle class="st0" cx="1070.08" cy="138.9" r="3.54"/>
	</g>
	<g id="CIRCLE_00000042696597223095607890000008009575344912198278_">
		<circle class="st0" cx="1013.39" cy="220.82" r="3.54"/>
	</g>
	<g id="CIRCLE_00000112599158001931296060000010686330916867526032_">
		<circle class="st0" cx="1070.08" cy="220.82" r="3.54"/>
	</g>
</g>
<g>
	<g id="CIRCLE_00000047738366369516537510000014748661134972770237_">
		<circle class="st0" cx="1033.23" cy="470.55" r="11.34"/>
	</g>
	<g id="LINE_00000054957988438869621060000013835771162142158236_">
		<line class="st0" x1="691.65" y1="447.87" x2="691.65" y2="504.57"/>
	</g>
	<g id="LINE_00000004538661473239008880000002332026012328093866_">
		<line class="st0" x1="1105.51" y1="561.26" x2="702.99" y2="561.26"/>
	</g>
	<g id="LINE_00000159458666953713768200000016807751712774573465_">
		<line class="st0" x1="1116.85" y1="504.57" x2="1116.85" y2="447.87"/>
	</g>
	<g id="LINE_00000044173269864658404170000009317319902628781701_">
		<line class="st0" x1="1116.85" y1="391.18" x2="1116.85" y2="334.49"/>
	</g>
	<g id="LINE_00000049223762160268963540000013092911220185109695_">
		<line class="st0" x1="691.65" y1="334.49" x2="691.65" y2="391.18"/>
	</g>
	<g id="CIRCLE_00000015326819518916843780000006515757636271175818_">
		<circle class="st0" cx="1070.08" cy="534.33" r="4.25"/>
	</g>
	<g id="CIRCLE_00000065062111783216140920000003824458017477564343_">
		<circle class="st0" cx="738.43" cy="534.33" r="4.25"/>
	</g>
	<g id="CIRCLE_00000026133611202811225020000011887979416531781033_">
		<circle class="st0" cx="1070.08" cy="440.79" r="4.25"/>
	</g>
	<g id="LINE_00000116204854652427078910000009478432887002641852_">
		<line class="st0" x1="858.05" y1="447.87" x2="984.19" y2="447.87"/>
	</g>
	<g id="LINE_00000157291695790903622630000011807974127865239688_">
		<line class="st0" x1="858.05" y1="447.87" x2="858.05" y2="544.82"/>
	</g>
	<g id="LINE_00000075841744375736718960000016064478218383070091_">
		<line class="st0" x1="984.19" y1="544.82" x2="858.05" y2="544.82"/>
	</g>
	<g id="LINE_00000113335418058491241780000017686180499951828384_">
		<line class="st0" x1="984.19" y1="544.82" x2="984.19" y2="447.87"/>
	</g>
	<g id="CIRCLE_00000112618893473404706780000003296903512171232902_">
		<circle class="st0" cx="738.43" cy="440.79" r="4.25"/>
	</g>
	<g id="CIRCLE_00000111162986200115761460000016115288646028700078_">
		<circle class="st0" cx="885.06" cy="439.37" r="4.25"/>
	</g>
	<g id="CIRCLE_00000172408539822325522000000017960627180776504208_">
		<circle class="st0" cx="961.6" cy="439.37" r="4.25"/>
	</g>
	<g id="LINE_00000039829467793881849210000017170491689305508257_">
		<line class="st0" x1="702.99" y1="334.49" x2="691.65" y2="334.49"/>
	</g>
	<g id="LINE_00000176015236024288022770000013236761178698000301_">
		<line class="st0" x1="702.99" y1="334.49" x2="702.99" y2="277.8"/>
	</g>
	<g id="LINE_00000064326645954502656530000011827753279590300339_">
		<line class="st0" x1="1105.51" y1="334.49" x2="1105.51" y2="277.8"/>
	</g>
	<g id="LINE_00000095306933580256902900000004596429702134640520_">
		<line class="st0" x1="1105.51" y1="334.49" x2="1116.85" y2="334.49"/>
	</g>
	<g id="LINE_00000059277689349689689860000005020000521534294953_">
		<line class="st0" x1="1116.85" y1="391.18" x2="1105.51" y2="391.18"/>
	</g>
	<g id="LINE_00000109718429176908786310000016536838345276689059_">
		<line class="st0" x1="1105.51" y1="447.87" x2="1105.51" y2="391.18"/>
	</g>
	<g id="LINE_00000000910745911418560340000009554261931082948514_">
		<line class="st0" x1="1105.51" y1="447.87" x2="1116.85" y2="447.87"/>
	</g>
	<g id="LINE_00000100353321853855493590000004737327094181265849_">
		<line class="st0" x1="1105.51" y1="504.57" x2="1116.85" y2="504.57"/>
	</g>
	<g id="LINE_00000075145351201882251950000017982345212155336330_">
		<line class="st0" x1="1105.51" y1="504.57" x2="1105.51" y2="561.26"/>
	</g>
	<g id="LINE_00000170255700339331658410000007510203976004475265_">
		<line class="st0" x1="702.99" y1="504.57" x2="702.99" y2="561.26"/>
	</g>
	<g id="LINE_00000052065238117499256230000000966543592700599173_">
		<line class="st0" x1="702.99" y1="504.57" x2="691.65" y2="504.57"/>
	</g>
	<g id="LINE_00000088824688325160958340000013945457038050710931_">
		<line class="st0" x1="702.99" y1="447.87" x2="691.65" y2="447.87"/>
	</g>
	<g id="LINE_00000145033497477991156810000001807456241837913999_">
		<line class="st0" x1="702.99" y1="447.87" x2="702.99" y2="391.18"/>
	</g>
	<g id="LINE_00000170270232770107908130000003145311054991668143_">
		<line class="st0" x1="691.65" y1="391.18" x2="702.99" y2="391.18"/>
	</g>
	<g id="LINE_00000070798370967951124570000004042911300793514146_">
		<line class="st0" x1="946.77" y1="277.8" x2="1105.51" y2="277.8"/>
	</g>
	<g id="LINE_00000175314348663522469500000017416264542078722195_">
		<line class="st0" x1="702.99" y1="277.8" x2="861.73" y2="277.8"/>
	</g>
	<g id="LINE_00000038371460407408662740000011343082555392008373_">
		<line class="st0" x1="946.77" y1="289.13" x2="946.77" y2="277.8"/>
	</g>
	<g id="LINE_00000067915161658382258100000012837864606171280567_">
		<line class="st0" x1="946.77" y1="289.13" x2="861.73" y2="289.13"/>
	</g>
	<g id="LINE_00000076587475305820632730000002556032550929420188_">
		<line class="st0" x1="861.73" y1="277.8" x2="861.73" y2="289.13"/>
	</g>
	<g id="LINE_00000082367491939449235800000013745169626703859119_">
		<line class="st0" x1="861.73" y1="354.33" x2="946.77" y2="354.33"/>
	</g>
	<g id="LINE_00000174599553492366915340000014365292261840069013_">
		<line class="st0" x1="946.77" y1="354.33" x2="946.77" y2="365.67"/>
	</g>
	<g id="LINE_00000155131454027736303260000009373195519963331717_">
		<line class="st0" x1="946.77" y1="365.67" x2="861.73" y2="365.67"/>
	</g>
	<g id="LINE_00000120556035000894138050000017530574092641913278_">
		<line class="st0" x1="861.73" y1="365.67" x2="861.73" y2="354.33"/>
	</g>
	<g id="LINE_00000024708244729917542290000018091074811918427068_">
		<line class="st0" x1="861.73" y1="354.33" x2="861.73" y2="365.67"/>
	</g>
	<g id="LINE_00000041291872214341647760000005863165019453279389_">
		<line class="st0" x1="946.77" y1="354.33" x2="861.73" y2="354.33"/>
	</g>
	<g id="LINE_00000021083843956173134110000008307764900698572160_">
		<line class="st0" x1="946.77" y1="354.33" x2="946.77" y2="365.67"/>
	</g>
	<g id="LINE_00000001623162817029929180000003500893287686648999_">
		<line class="st0" x1="946.77" y1="365.67" x2="861.73" y2="365.67"/>
	</g>
	<rect x="790.87" y="542.44" class="st0" width="43.77" height="7.48"/>
</g>
</svg>
